<svg width="38" height="38" viewBox="0 0 38 38" fill="none" xmlns="http://www.w3.org/2000/svg">
<path d="M19.0007 3.16675C15.6412 3.16675 12.4194 4.50127 10.044 6.87673C7.6685 9.25219 6.33398 12.474 6.33398 15.8334C6.33398 24.3834 17.4965 34.0417 17.9715 34.4534C18.2583 34.6987 18.6233 34.8335 19.0007 34.8335C19.378 34.8335 19.743 34.6987 20.0298 34.4534C20.584 34.0417 31.6673 24.3834 31.6673 15.8334C31.6673 12.474 30.3328 9.25219 27.9573 6.87673C25.5819 4.50127 22.3601 3.16675 19.0007 3.16675ZM19.0007 31.1126C15.6282 27.9459 9.50065 21.1217 9.50065 15.8334C9.50065 13.3139 10.5015 10.8975 12.2831 9.1159C14.0647 7.33431 16.4811 6.33341 19.0007 6.33341C21.5202 6.33341 23.9366 7.33431 25.7182 9.1159C27.4998 10.8975 28.5007 13.3139 28.5007 15.8334C28.5007 21.1217 22.3732 27.9617 19.0007 31.1126ZM19.0007 9.50008C17.748 9.50008 16.5236 9.87152 15.482 10.5674C14.4405 11.2634 13.6288 12.2525 13.1494 13.4098C12.6701 14.567 12.5446 15.8404 12.789 17.069C13.0334 18.2975 13.6366 19.426 14.5223 20.3118C15.408 21.1975 16.5365 21.8007 17.7651 22.0451C18.9936 22.2894 20.267 22.164 21.4243 21.6847C22.5816 21.2053 23.5707 20.3935 24.2666 19.352C24.9625 18.3105 25.334 17.086 25.334 15.8334C25.334 14.1537 24.6667 12.5428 23.479 11.3551C22.2913 10.1673 20.6804 9.50008 19.0007 9.50008ZM19.0007 19.0001C18.3743 19.0001 17.7621 18.8144 17.2413 18.4664C16.7206 18.1184 16.3147 17.6239 16.075 17.0452C15.8354 16.4666 15.7726 15.8299 15.8948 15.2156C16.017 14.6014 16.3186 14.0371 16.7615 13.5942C17.2043 13.1514 17.7686 12.8498 18.3829 12.7276C18.9971 12.6054 19.6338 12.6681 20.2125 12.9078C20.7911 13.1475 21.2857 13.5534 21.6336 14.0741C21.9816 14.5949 22.1673 15.2071 22.1673 15.8334C22.1673 16.6733 21.8337 17.4787 21.2398 18.0726C20.646 18.6665 19.8405 19.0001 19.0007 19.0001Z" fill="#EA9A4A"/>
</svg>
