<svg width="40" height="40" viewBox="0 0 40 40" fill="none" xmlns="http://www.w3.org/2000/svg">
<path d="M24.3374 20.8873L21.4 19.192V13C21.4 12.6287 21.2525 12.2726 20.99 12.01C20.7274 11.7475 20.3713 11.6 20 11.6C19.6287 11.6 19.2726 11.7475 19.0101 12.01C18.7475 12.2726 18.6 12.6287 18.6 13V20C18.5999 20.2458 18.6646 20.4873 18.7875 20.7002C18.9104 20.913 19.0871 21.0898 19.3 21.2127L22.9374 23.3127C23.0967 23.4047 23.2725 23.4645 23.4548 23.4885C23.6372 23.5126 23.8225 23.5005 24.0002 23.4529C24.1779 23.4053 24.3444 23.3232 24.4904 23.2113C24.6363 23.0993 24.7588 22.9597 24.8507 22.8004C24.9427 22.641 25.0023 22.4652 25.0263 22.2828C25.0503 22.1004 25.0381 21.9151 24.9904 21.7375C24.9427 21.5598 24.8605 21.3933 24.7485 21.2474C24.6364 21.1015 24.4968 20.9792 24.3374 20.8873ZM20 6C17.2311 6 14.5243 6.82109 12.222 8.35943C9.91973 9.89776 8.12532 12.0843 7.06569 14.6424C6.00607 17.2006 5.72882 20.0155 6.26901 22.7313C6.80921 25.447 8.14258 27.9416 10.1005 29.8995C12.0584 31.8574 14.553 33.1908 17.2687 33.731C19.9845 34.2712 22.7994 33.9939 25.3576 32.9343C27.9157 31.8747 30.1022 30.0803 31.6406 27.778C33.1789 25.4757 34 22.7689 34 20C33.9959 16.2882 32.5196 12.7297 29.8949 10.1051C27.2703 7.48045 23.7118 6.00413 20 6ZM20 31.2C17.7849 31.2 15.6194 30.5431 13.7776 29.3125C11.9358 28.0818 10.5003 26.3326 9.65256 24.2861C8.80485 22.2395 8.58306 19.9876 9.01521 17.815C9.44737 15.6424 10.5141 13.6468 12.0804 12.0804C13.6468 10.5141 15.6424 9.44736 17.815 9.0152C19.9876 8.58305 22.2395 8.80485 24.2861 9.65255C26.3326 10.5003 28.0818 11.9358 29.3125 13.7776C30.5431 15.6194 31.2 17.7848 31.2 20C31.1966 22.9694 30.0155 25.8162 27.9158 27.9158C25.8162 30.0155 22.9694 31.1966 20 31.2Z" fill="#EA9A4A"/>
</svg>
