<svg width="31" height="31" viewBox="0 0 31 31" fill="none" xmlns="http://www.w3.org/2000/svg">
<path d="M20.0175 16.4244L16.9577 14.6584V8.20842C16.9577 7.82164 16.804 7.45071 16.5306 7.17722C16.2571 6.90373 15.8861 6.75008 15.4994 6.75008C15.1126 6.75008 14.7416 6.90373 14.4682 7.17722C14.1947 7.45071 14.041 7.82164 14.041 8.20842V15.5001C14.041 15.7561 14.1083 16.0077 14.2363 16.2294C14.3643 16.4512 14.5484 16.6353 14.7702 16.7633L18.5591 18.9508C18.725 19.0467 18.9082 19.1089 19.0982 19.134C19.2881 19.1591 19.4811 19.1464 19.6662 19.0969C19.8513 19.0473 20.0248 18.9618 20.1768 18.8451C20.3288 18.7285 20.4564 18.5831 20.5522 18.4171C20.648 18.2512 20.7101 18.068 20.7351 17.878C20.7601 17.688 20.7473 17.495 20.6977 17.31C20.648 17.1249 20.5624 16.9514 20.4457 16.7995C20.329 16.6475 20.1835 16.5201 20.0175 16.4244ZM15.4994 0.916748C12.615 0.916748 9.79551 1.77205 7.39729 3.37448C4.99907 4.97692 3.12989 7.25453 2.02611 9.91928C0.922334 12.584 0.633536 15.5163 1.19624 18.3451C1.75894 21.174 3.14787 23.7725 5.18738 25.8121C7.2269 27.8516 9.8254 29.2405 12.6543 29.8032C15.4832 30.3659 18.4154 30.0771 21.0802 28.9733C23.7449 27.8695 26.0225 26.0004 27.625 23.6021C29.2274 21.2039 30.0827 18.3844 30.0827 15.5001C30.0784 11.6337 28.5406 7.92683 25.8066 5.19286C23.0726 2.45888 19.3658 0.921048 15.4994 0.916748ZM15.4994 27.1667C13.1919 27.1667 10.9363 26.4825 9.0177 25.2006C7.09913 23.9186 5.60378 22.0965 4.72076 19.9647C3.83774 17.8329 3.6067 15.4871 4.05686 13.224C4.50702 10.9609 5.61816 8.88212 7.24978 7.2505C8.88139 5.61889 10.9602 4.50775 13.2233 4.05759C15.4864 3.60743 17.8322 3.83846 19.964 4.72149C22.0958 5.60451 23.9179 7.09986 25.1998 9.01843C26.4818 10.937 27.166 13.1926 27.166 15.5001C27.1625 18.5932 25.9322 21.5586 23.745 23.7458C21.5579 25.9329 18.5925 27.1632 15.4994 27.1667Z" fill="#EA9A4A"/>
</svg>
