<svg width="26" height="26" viewBox="0 0 26 26" fill="none" xmlns="http://www.w3.org/2000/svg">
<path d="M24.3072 17.649L22.1072 15.449C21.4514 14.7985 20.5662 14.4317 19.6425 14.4278C18.7188 14.4238 17.8305 14.7831 17.1692 15.428C16.8164 15.7829 16.3508 16.0037 15.8528 16.0524C15.3547 16.1012 14.8552 15.9748 14.4402 15.695C12.8024 14.602 11.3954 13.1977 10.2992 11.562C10.0244 11.1424 9.90258 10.6409 9.95431 10.142C10.006 9.64311 10.2282 9.17728 10.5832 8.82301C11.2223 8.16108 11.5769 7.27528 11.5711 6.35519C11.5653 5.4351 11.1996 4.55384 10.5522 3.90001L8.35223 1.70001C7.69358 1.04362 6.80161 0.675049 5.87173 0.675049C4.94185 0.675049 4.04988 1.04362 3.39123 1.70001L2.75823 2.33401C-0.541769 5.63401 -0.294769 12.572 6.57123 19.434C10.7112 23.575 14.8782 25.309 18.2572 25.309C19.2519 25.3421 20.2432 25.177 21.1734 24.8231C22.1036 24.4693 22.9541 23.9338 23.6752 23.248L24.3092 22.614C24.9668 21.9551 25.336 21.062 25.3356 20.1311C25.3352 19.2002 24.9654 18.3074 24.3072 17.649ZM22.8932 21.2L22.2592 21.834C19.6592 24.434 13.9202 23.959 7.98323 18.021C2.04623 12.083 1.57023 6.34001 4.17023 3.74001L4.79923 3.10701C5.08244 2.82483 5.46594 2.66638 5.86573 2.66638C6.26552 2.66638 6.64902 2.82483 6.93223 3.10701L9.13223 5.30701C9.41029 5.58647 9.56813 5.96353 9.57205 6.35774C9.57597 6.75194 9.42568 7.13207 9.15323 7.41701C8.47751 8.09704 8.056 8.98863 7.95933 9.94241C7.86266 10.8962 8.0967 11.8542 8.62223 12.656C9.86778 14.5199 11.4695 16.1192 13.3352 17.362C14.1346 17.8876 15.0901 18.123 16.0422 18.0289C16.9943 17.9348 17.8852 17.5169 18.5662 16.845C18.8506 16.5693 19.2318 16.4163 19.6279 16.4187C20.024 16.4211 20.4032 16.5789 20.6842 16.858L22.8842 19.058C23.026 19.1978 23.1388 19.3641 23.216 19.5476C23.2933 19.7311 23.3334 19.9281 23.3343 20.1271C23.3351 20.3262 23.2966 20.5235 23.2209 20.7076C23.1452 20.8917 23.0338 21.0591 22.8932 21.2Z" fill="#EA9A4A"/>
</svg>
